<svg width="325" height="325" xmlns="http://www.w3.org/2000/svg">
  
  <!-- <path d="M10 10 H 90 V 90 H 10 L 10 10"/> -->
  <!-- <path d="M10 10 h 80 v 80 h -80 Z" fill="transparent" stroke="black"/> -->
  <path d="M10 10 H 90 V 90 H 10 Z" fill="transparent" stroke="black"/>
  <path d="M10 80 C 40 10, 65 10, 95 80 S 150 150, 180 80" stroke="black" fill="transparent"/>
  <path d="M10 80 Q 95 10 180 80" stroke="black" fill="transparent"/>
  <path d="M10 80 Q 52.5 10, 95 80 T 180 80" stroke="black" fill="transparent"/>

  <!-- Points -->
  <circle cx="10" cy="10" r="2" fill="red"/>
  <circle cx="90" cy="90" r="2" fill="red"/>
  <circle cx="90" cy="10" r="2" fill="red"/>
  <circle cx="10" cy="90" r="2" fill="red"/>

  <!-- a rx ry x-axis-rotation large-arc-flag sweep-flag dx dy -->
  <!-- large-arc-flag（角度大小） 和sweep-flag（弧线方向），large-arc-flag决定弧线是大于还是小于180度，0表示小角度弧，1表示大角度弧。sweep-flag表示弧线的方向，0表示从起点到终点沿逆时针画弧，1表示从起点到终点沿顺时针画弧。 -->
  <path d="M10 315
           L 110 215
           A 30 50 0 0 1 162.55 162.45
           L 172.55 152.45
           A 30 50 -45 0 1 215.1 109.9
           L 315 10" stroke="black" fill="green" stroke-width="2" fill-opacity="0.5"/>

  <path d="M80 80
           A 45 45, 0, 0, 0, 125 125
           L 125 80 Z" fill="green"/>
  <path d="M230 80
           A 45 45, 0, 1, 0, 275 125
           L 275 80 Z" fill="red"/>
  <path d="M80 230
           A 45 45, 0, 0, 1, 125 275
           L 125 230 Z" fill="purple"/>
  <path d="M230 230
           A 45 45, 0, 1, 1, 275 275
           L 275 230 Z" fill="blue"/>


</svg>