<?xml version="1.0" standalone="no"?>
<svg width="200" height="900" xmlns="http://www.w3.org/2000/svg" version="1.1">
  <defs>
    <linearGradient id="Gradient1">
      <stop offset="5%" stop-color="white"/>
      <stop offset="95%" stop-color="blue"/>
    </linearGradient>
    <linearGradient id="Gradient2" x1="0" x2="0" y1="0" y2="1">
      <stop offset="5%" stop-color="red"/>
      <stop offset="95%" stop-color="orange"/>
    </linearGradient>

    <pattern id="Pattern" x="0" y="0" width=".25" height=".25" >
      <rect x="0" y="0" width="50" height="50" fill="skyblue"/>
      <rect x="0" y="0" width="25" height="25" fill="url(#Gradient2)"/>
      <circle cx="25" cy="25" r="20" fill="url(#Gradient1)" fill-opacity="0.5"/>
    </pattern>

    <!-- 通过改变patternContentUnits属性，我们可以把所有的元素放到相同的单元系统中 -->
    <pattern id="Pattern2" width=".25" height=".25" patternContentUnits="objectBoundingBox">
       <rect x="0" y="0" width=".25" height=".25" fill="skyblue"/>
       <rect x="0" y="0" width=".125" height=".125" fill="url(#Gradient2)"/>
       <circle cx=".125" cy=".125" r=".1" fill="url(#Gradient1)" fill-opacity="0.5"/>
     </pattern>

     <!-- 有确认的大小并且重复他们自己，与对象形状独立开来 -->
     <pattern id="Pattern3" x="10" y="10" width="50" height="50" patternUnits="userSpaceOnUse">
       <rect x="0" y="0" width="50" height="50" fill="skyblue"/>
       <rect x="0" y="0" width="25" height="25" fill="url(#Gradient2)"/>
       <circle cx="25" cy="25" r="20" fill="url(#Gradient1)" fill-opacity="0.5"/>
     </pattern>

  </defs>

  <rect fill="url(#Pattern)" stroke="black" x="0" y="0" width="200" height="300"/>
  <rect fill="url(#Pattern2)" stroke="black" x="0" y="300" width="200" height="300"/>
  <rect fill="url(#Pattern3)" stroke="black" x="0" y="600" width="200" height="300"/>
</svg>